<?xml version="1.0" encoding="utf-8"?>
<!-- Generator: Adobe Illustrator 16.0.0, SVG Export Plug-In . SVG Version: 6.00 Build 0)  -->
<!DOCTYPE svg PUBLIC "-//W3C//DTD SVG 1.0//EN" "http://www.w3.org/TR/2001/REC-SVG-20010904/DTD/svg10.dtd">
<svg version="1.0" xmlns="http://www.w3.org/2000/svg" xmlns:xlink="http://www.w3.org/1999/xlink" x="0px" y="0px"
	 width="23.125px" height="23.129px" viewBox="0 0 23.125 23.129" enable-background="new 0 0 23.125 23.129" xml:space="preserve">
<g id="Layer_1">
	<g>
		<path fill="#FFFFFF" d="M21.786,11.074l-9.46,0.004l-0.004-9.469c0-0.422-0.343-0.759-0.761-0.759
			c-0.418-0.003-0.762,0.341-0.76,0.761L10.8,11.076l-9.46,0.001c-0.424,0-0.761,0.341-0.763,0.762c0,0.214,0.091,0.409,0.234,0.546
			C0.945,12.517,1.134,12.6,1.341,12.6l9.462-0.003l-0.001,9.461c-0.001,0.217,0.09,0.412,0.233,0.551
			c0.137,0.131,0.324,0.213,0.528,0.21c0.422,0.004,0.765-0.338,0.765-0.762l-0.002-9.461l9.461-0.001
			c0.421,0.003,0.76-0.341,0.762-0.762C22.55,11.415,22.204,11.077,21.786,11.074z"/>
	</g>
</g>
<g id="Calque_2">
</g>
</svg>
