<?xml version="1.0" encoding="utf-8"?>
<!-- Generator: Adobe Illustrator 16.0.0, SVG Export Plug-In . SVG Version: 6.00 Build 0)  -->
<!DOCTYPE svg PUBLIC "-//W3C//DTD SVG 1.0//EN" "http://www.w3.org/TR/2001/REC-SVG-20010904/DTD/svg10.dtd">
<svg version="1.0" xmlns="http://www.w3.org/2000/svg" xmlns:xlink="http://www.w3.org/1999/xlink" x="0px" y="0px"
	 width="23.125px" height="23.129px" viewBox="0 0 23.125 23.129" enable-background="new 0 0 23.125 23.129" xml:space="preserve">
<g id="Layer_1">
	<g>
		<path fill="#FFFFFF" d="M15.674,14.896c-0.064-0.062-0.145-0.078-0.227-0.094c1.527-1.637,2.383-3.739,2.383-5.987
			c0.002-2.353-0.916-4.567-2.58-6.231C13.584,0.917,11.369,0,9.016,0C6.66,0,4.447,0.917,2.779,2.584
			c-1.664,1.664-2.582,3.879-2.58,6.233c0,2.354,0.918,4.569,2.584,6.233c1.664,1.665,3.877,2.582,6.232,2.582
			c2.246,0,4.35-0.856,5.984-2.381c0.016,0.081,0.031,0.162,0.092,0.225l7.135,7.133c0.078,0.079,0.184,0.12,0.289,0.12
			s0.209-0.041,0.289-0.12c0.16-0.16,0.16-0.419,0-0.579L15.674,14.896z M14.668,14.472c-1.51,1.509-3.518,2.342-5.652,2.342
			s-4.143-0.833-5.654-2.342c-1.51-1.511-2.342-3.518-2.342-5.654c-0.002-2.136,0.83-4.144,2.34-5.654
			c1.512-1.511,3.521-2.344,5.656-2.344s4.143,0.833,5.654,2.344c1.51,1.511,2.342,3.518,2.342,5.652
			C17.012,10.951,16.178,12.959,14.668,14.472z"/>
	</g>
</g>
<g id="Calque_2">
</g>
</svg>
