<?xml version="1.0" encoding="utf-8"?>
<!-- Generator: Adobe Illustrator 16.0.0, SVG Export Plug-In . SVG Version: 6.00 Build 0)  -->
<!DOCTYPE svg PUBLIC "-//W3C//DTD SVG 1.0//EN" "http://www.w3.org/TR/2001/REC-SVG-20010904/DTD/svg10.dtd">
<svg version="1.0" xmlns="http://www.w3.org/2000/svg" xmlns:xlink="http://www.w3.org/1999/xlink" x="0px" y="0px"
	 width="23.125px" height="23.129px" viewBox="0 0 23.125 23.129" enable-background="new 0 0 23.125 23.129" xml:space="preserve">
<g id="Layer_1">
	<g>
		<path fill="#FFFFFF" d="M17.783,13.211H5.099c-1.449,0-1.948,0.689-2.12,1.101c-0.17,0.409-0.301,1.248,0.723,2.271l5.29,5.295
			c0.652,0.651,1.519,1.013,2.451,1.013c0.929,0,1.796-0.361,2.448-1.013l5.289-5.295c1.029-1.027,0.897-1.865,0.728-2.274
			C19.74,13.9,19.236,13.211,17.783,13.211z M18.843,14.871l-6.077,6.081c-0.703,0.699-1.945,0.699-2.645,0l-6.082-6.081
			c-0.096-0.091-0.159-0.176-0.216-0.245c0.09-0.01,0.2-0.023,0.333-0.023h14.57c0.137,0,0.247,0.014,0.332,0.023
			C19.004,14.695,18.933,14.78,18.843,14.871z"/>
		<path fill="#FFFFFF" d="M5.099,9.876h12.685c1.453,0,1.957-0.683,2.124-1.089c0.17-0.413,0.302-1.251-0.728-2.278L13.891,1.22
			c-1.3-1.307-3.595-1.307-4.899,0l-5.29,5.289C2.678,7.531,2.809,8.372,2.979,8.782C3.15,9.193,3.649,9.876,5.099,9.876z
			 M3.862,8.293l6.227-6.221c0.716-0.719,1.988-0.719,2.709,0l6.222,6.221c0.092,0.099,0.164,0.184,0.221,0.255
			c-0.086,0.014-0.2,0.021-0.34,0.021H3.981c-0.135,0-0.248-0.008-0.34-0.021C3.698,8.477,3.764,8.392,3.862,8.293z"/>
	</g>
</g>
<g id="Calque_2">
</g>
</svg>
