<?xml version="1.0" encoding="utf-8"?>
<!-- Generator: Adobe Illustrator 16.0.0, SVG Export Plug-In . SVG Version: 6.00 Build 0)  -->
<!DOCTYPE svg PUBLIC "-//W3C//DTD SVG 1.0//EN" "http://www.w3.org/TR/2001/REC-SVG-20010904/DTD/svg10.dtd">
<svg version="1.0" xmlns="http://www.w3.org/2000/svg" xmlns:xlink="http://www.w3.org/1999/xlink" x="0px" y="0px"
	 width="23.125px" height="23.129px" viewBox="0 0 23.125 23.129" enable-background="new 0 0 23.125 23.129" xml:space="preserve">
<g id="Layer_1">
	<path fill="#FFFFFF" d="M21.567,4.665l0.05-4.006c0.001-0.291-0.22-0.492-0.507-0.445L8.859,2.164
		C8.571,2.209,8.332,2.485,8.332,2.776v0.027V8.07v9.781c-0.705-0.539-1.54-0.872-2.527-0.872c-1.981,0-3.588,1.343-3.588,2.998
		c0,1.658,1.607,3.001,3.59,3.001c1.981,0,3.587-1.343,3.587-3.001c0-0.136-0.001-0.162-0.004-0.382
		c0.009-0.198,0.002-0.139,0.002-0.204V9.743l0,0V8.424l11.116-1.855v9.497c-0.706-0.54-1.524-0.873-2.511-0.873
		c-1.982,0-3.579,1.344-3.579,3.001c0,1.655,1.61,2.998,3.593,2.998s3.579-1.329,3.579-2.985c0-0.137-0.002-0.193-0.01-0.408
		c-0.003-0.177-0.013-0.128-0.013-0.195V7.956V7.955V4.665z"/>
</g>
<g id="Calque_3">
</g>
<g id="Calque_2">
</g>
</svg>
