<?xml version="1.0" encoding="utf-8"?>
<!-- Generator: Adobe Illustrator 16.0.0, SVG Export Plug-In . SVG Version: 6.00 Build 0)  -->
<!DOCTYPE svg PUBLIC "-//W3C//DTD SVG 1.0//EN" "http://www.w3.org/TR/2001/REC-SVG-20010904/DTD/svg10.dtd">
<svg version="1.0" xmlns="http://www.w3.org/2000/svg" xmlns:xlink="http://www.w3.org/1999/xlink" x="0px" y="0px"
	 width="23.125px" height="23.129px" viewBox="0 0 23.125 23.129" enable-background="new 0 0 23.125 23.129" xml:space="preserve">
<g id="Layer_1">
	<g>
		<path fill="#FFFFFF" d="M0.433,18.043h7.193c0,0,2.102,0.132,4.746-4.548c0-0.017,2.327-4.568,3.836-4.517
			c-0.016,0,2.465-0.004,2.465-0.004v2.354l4.02-3.672l-4.02-3.804l0.018,2.448h-2.828c0,0-2.82,0.132-4.631,4.067
			c0,0-2.559,4.814-3.985,5.061c0.017,0-6.813,0-6.813,0V18.043z"/>
		<g>
			<path fill="#FFFFFF" d="M8.81,10.779L8.81,10.779l1.465-2.303C8.698,6.81,7.626,6.876,7.626,6.876H0.433V9.49c0,0,6.83,0,6.813,0
				C7.694,9.566,8.252,10.093,8.81,10.779z"/>
			<path fill="#FFFFFF" d="M22.692,17.262l-4.02-3.671v2.354c0,0-2.48-0.005-2.465-0.005c-0.688,0.023-1.547-0.91-2.276-1.935
				l-1.61,2.367c1.671,2.157,3.541,2.245,3.541,2.245h2.828l-0.018,2.447L22.692,17.262z"/>
		</g>
	</g>
</g>
<g id="Calque_3">
</g>
<g id="Calque_2">
</g>
</svg>
