<?xml version="1.0" encoding="utf-8"?>
<!-- Generator: Adobe Illustrator 16.0.0, SVG Export Plug-In . SVG Version: 6.00 Build 0)  -->
<!DOCTYPE svg PUBLIC "-//W3C//DTD SVG 1.0//EN" "http://www.w3.org/TR/2001/REC-SVG-20010904/DTD/svg10.dtd">
<svg version="1.0" xmlns="http://www.w3.org/2000/svg" xmlns:xlink="http://www.w3.org/1999/xlink" x="0px" y="0px"
	 width="23.125px" height="23.129px" viewBox="0 0 23.125 23.129" enable-background="new 0 0 23.125 23.129" xml:space="preserve">
<g id="Layer_1">
	<g>
		<path fill="#FFFFFF" d="M19.712,9.78L5.003,1.288C3.496,0.429,1.98,1.342,1.98,3.032v16.988c0,1.232,0.747,2.089,1.823,2.089
			c0.395,0,0.792-0.112,1.199-0.345l14.709-8.5c0.727-0.418,1.143-1.051,1.143-1.742C20.854,10.835,20.438,10.203,19.712,9.78z
			 M18.84,11.758L4.132,20.253c-0.184,0.108-0.299,0.117-0.328,0.117l-0.005,0.01c-0.021-0.022-0.074-0.127-0.074-0.359V3.032
			c0-0.232,0.054-0.336,0.079-0.349c0.029,0,0.145,0.008,0.328,0.116l14.708,8.488c0.199,0.116,0.262,0.22,0.27,0.229
			C19.102,11.542,19.039,11.646,18.84,11.758z"/>
		<path fill="#FFFFFF" d="M21.727,0.196c-0.487,0-0.872,0.391-0.872,0.869v20.94c0,0.478,0.385,0.867,0.872,0.867
			c0.478,0,0.867-0.39,0.867-0.867V1.065C22.594,0.587,22.204,0.196,21.727,0.196z"/>
	</g>
</g>
<g id="Calque_2">
</g>
</svg>
