<?xml version="1.0" encoding="utf-8"?>
<!-- Generator: Adobe Illustrator 16.0.0, SVG Export Plug-In . SVG Version: 6.00 Build 0)  -->
<!DOCTYPE svg PUBLIC "-//W3C//DTD SVG 1.0//EN" "http://www.w3.org/TR/2001/REC-SVG-20010904/DTD/svg10.dtd">
<svg version="1.0" xmlns="http://www.w3.org/2000/svg" xmlns:xlink="http://www.w3.org/1999/xlink" x="0px" y="0px"
	 width="23.125px" height="23.129px" viewBox="0 0 23.125 23.129" enable-background="new 0 0 23.125 23.129" xml:space="preserve">
<g id="Layer_1">
	<path fill="#FFFFFF" d="M11.563,0.173c-6.292,0-11.392,5.1-11.392,11.393c0,6.291,5.1,11.391,11.392,11.391
		c6.29,0,11.392-5.1,11.392-11.391C22.954,5.272,17.853,0.173,11.563,0.173z M16.867,16.512c-0.188,0.417-0.718,0.545-1.165,0.299
		c-3.155-1.616-6.281-1.697-9.731-1.081c-0.487,0.107-0.976-0.129-1.06-0.563c-0.084-0.436,0.256-0.892,0.78-1.002
		c3.746-0.635,7.17-0.427,10.642,1.168C16.822,15.573,17.055,16.095,16.867,16.512z M18.223,13.361
		c-0.219,0.497-0.831,0.655-1.346,0.365c-3.584-1.915-7.238-2.007-11.182-1.244c-0.561,0.129-1.123-0.153-1.219-0.672
		c-0.097-0.519,0.297-1.063,0.898-1.196c4.293-0.785,8.278-0.543,12.241,1.345C18.178,12.244,18.441,12.864,18.223,13.361z
		 M18.276,10.294c-4.182-2.176-8.577-2.25-13.139-1.297C4.483,9.154,3.816,8.833,3.693,8.233C3.57,7.633,4.02,7,4.727,6.838
		C9.712,5.853,14.48,6.1,19.122,8.237c0.664,0.32,0.982,1.032,0.731,1.612C19.602,10.429,18.883,10.62,18.276,10.294z"/>
</g>
<g id="Calque_3">
</g>
<g id="Calque_2">
</g>
</svg>
