<?xml version="1.0" encoding="utf-8"?>
<!-- Generator: Adobe Illustrator 16.0.0, SVG Export Plug-In . SVG Version: 6.00 Build 0)  -->
<!DOCTYPE svg PUBLIC "-//W3C//DTD SVG 1.0//EN" "http://www.w3.org/TR/2001/REC-SVG-20010904/DTD/svg10.dtd">
<svg version="1.0" xmlns="http://www.w3.org/2000/svg" xmlns:xlink="http://www.w3.org/1999/xlink" x="0px" y="0px"
	 width="23.125px" height="23.129px" viewBox="0 0 23.125 23.129" enable-background="new 0 0 23.125 23.129" xml:space="preserve">
<g id="Layer_1">
	<g>
		<path fill="#FFFFFF" d="M22.103,10.966l-18.831-0.34l9.184-8.862c0.314-0.3,0.322-0.799,0.022-1.107
			c-0.3-0.313-0.801-0.32-1.111-0.021L0.252,11.354l0.542,0.565c0.004,0,0.004,0.003,0.004,0.003l10.176,10.553
			c0.152,0.158,0.359,0.238,0.564,0.238c0.195,0,0.394-0.071,0.547-0.221c0.311-0.302,0.317-0.8,0.018-1.11l-8.86-9.187l18.83,0.34
			c0.008,0,0.012,0,0.015,0c0.428,0,0.775-0.342,0.786-0.769C22.882,11.33,22.536,10.974,22.103,10.966z"/>
	</g>
</g>
<g id="Calque_2">
</g>
</svg>
