<?xml version="1.0" encoding="utf-8"?>
<!-- Generator: Adobe Illustrator 16.0.0, SVG Export Plug-In . SVG Version: 6.00 Build 0)  -->
<!DOCTYPE svg PUBLIC "-//W3C//DTD SVG 1.0//EN" "http://www.w3.org/TR/2001/REC-SVG-20010904/DTD/svg10.dtd">
<svg version="1.0" xmlns="http://www.w3.org/2000/svg" xmlns:xlink="http://www.w3.org/1999/xlink" x="0px" y="0px"
	 width="23.125px" height="23.129px" viewBox="0 0 23.125 23.129" enable-background="new 0 0 23.125 23.129" xml:space="preserve">
<g id="Layer_1">
	<path id="heart_2_" fill="#FFFFFF" d="M22.948,8.488c0-0.029-0.002-0.066-0.003-0.096c0.001-0.088,0.002-0.271,0-0.271H22.94
		c-0.171-3.745-2.925-6.53-6.294-6.53c-2.087,0-3.937,1.113-5.084,2.822c-1.147-1.709-2.996-2.807-5.084-2.807
		c-3.249,0-5.923,2.592-6.264,6.157H0.207c0,0,0,0.044,0,0.071c-0.019,0.219-0.03,0.434-0.03,0.659c0,1.028,0.209,1.999,0.578,2.877
		c2.267,6.984,10.778,11.096,10.778,11.096s10.613-4.734,11.371-13.176C22.931,9.028,22.948,8.761,22.948,8.488z"/>
</g>
<g id="Calque_2">
</g>
</svg>
