<?xml version="1.0" encoding="utf-8"?>
<!-- Generator: Adobe Illustrator 16.0.0, SVG Export Plug-In . SVG Version: 6.00 Build 0)  -->
<!DOCTYPE svg PUBLIC "-//W3C//DTD SVG 1.0//EN" "http://www.w3.org/TR/2001/REC-SVG-20010904/DTD/svg10.dtd">
<svg version="1.0" xmlns="http://www.w3.org/2000/svg" xmlns:xlink="http://www.w3.org/1999/xlink" x="0px" y="0px"
	 width="23.125px" height="23.129px" viewBox="0 0 23.125 23.129" enable-background="new 0 0 23.125 23.129" xml:space="preserve">
<g id="Layer_1">
	<g>
		<path fill="#FFFFFF" d="M6.952,0.319c-0.765,0-1.374,0.393-1.374,0.875v21.061c0,0.481,0.609,0.874,1.374,0.874
			c0.754,0,1.369-0.393,1.369-0.874V1.194C8.321,0.712,7.706,0.319,6.952,0.319z"/>
		<path fill="#FFFFFF" d="M16.183,0.319c-0.765,0-1.373,0.393-1.373,0.875v21.061c0,0.481,0.608,0.874,1.373,0.874
			c0.748,0,1.364-0.393,1.364-0.874V1.194C17.547,0.712,16.931,0.319,16.183,0.319z"/>
	</g>
</g>
<g id="Calque_2">
</g>
</svg>
