<?xml version="1.0" encoding="utf-8"?>
<!-- Generator: Adobe Illustrator 16.0.0, SVG Export Plug-In . SVG Version: 6.00 Build 0)  -->
<!DOCTYPE svg PUBLIC "-//W3C//DTD SVG 1.0//EN" "http://www.w3.org/TR/2001/REC-SVG-20010904/DTD/svg10.dtd">
<svg version="1.0" xmlns="http://www.w3.org/2000/svg" xmlns:xlink="http://www.w3.org/1999/xlink" x="0px" y="0px"
	 width="23.125px" height="23.129px" viewBox="0 0 23.125 23.129" enable-background="new 0 0 23.125 23.129" xml:space="preserve">
<g id="Layer_1">
	<g>
		<g>
			<path fill="#FFFFFF" d="M4.033,17.124l4.408,0.002c0.278,0,0.508,0.229,0.508,0.506c0,0.28-0.273,0.658-0.552,0.658l-3.336-0.034
				c0.1,0.114,1.577,1.311,2.042,1.542c3.146,1.574,7.689,2.183,11.517-1.637c2.625-2.629,3.325-6.11,2.754-9.725
				c-0.043-0.275,0.056-0.553,0.321-0.642c0.269-0.09,0.552,0.056,0.642,0.322c1.312,3.929,0.329,8.173-2.567,11.076
				c-2.112,2.107-4.884,3.163-7.652,3.163c-2.771,0-5.536-0.877-7.645-2.983c-0.122-0.124-0.222-0.263-0.336-0.388l0.143,3.481
				c0,0.279-0.379,0.489-0.656,0.489c-0.279,0-0.508-0.228-0.508-0.506v-5.326h0.28H4.033z"/>
		</g>
		<g>
			<path fill="#FFFFFF" d="M19.941,6.006l-4.408-0.001c-0.278,0-0.508-0.229-0.508-0.507c0-0.279,0.273-0.657,0.552-0.657
				l3.336,0.035c-0.1-0.115-1.577-1.313-2.042-1.544C13.725,1.759,9.182,1.149,5.354,4.97c-2.625,2.628-3.325,6.109-2.754,9.725
				c0.043,0.275-0.056,0.552-0.322,0.641c-0.269,0.09-0.551-0.056-0.641-0.32C0.326,11.084,1.309,6.84,4.205,3.937
				c2.112-2.106,4.884-3.163,7.651-3.163c2.772,0,5.537,0.877,7.645,2.983c0.123,0.123,0.223,0.263,0.336,0.389l-0.142-3.482
				c0-0.278,0.379-0.489,0.656-0.489c0.279,0,0.508,0.228,0.508,0.507v5.325h-0.28H19.941z"/>
		</g>
	</g>
</g>
</svg>
