<?xml version="1.0" encoding="utf-8"?>
<!-- Generator: Adobe Illustrator 16.0.0, SVG Export Plug-In . SVG Version: 6.00 Build 0)  -->
<!DOCTYPE svg PUBLIC "-//W3C//DTD SVG 1.0//EN" "http://www.w3.org/TR/2001/REC-SVG-20010904/DTD/svg10.dtd">
<svg version="1.0" xmlns="http://www.w3.org/2000/svg" xmlns:xlink="http://www.w3.org/1999/xlink" x="0px" y="0px"
	 width="23.125px" height="23.129px" viewBox="0 0 23.125 23.129" enable-background="new 0 0 23.125 23.129" xml:space="preserve">
<g id="Layer_1">
	<path fill="#FFFFFF" d="M22.945,7.927c0.001-0.088,0.002-0.271,0-0.271H22.94c-0.171-3.745-2.925-6.53-6.294-6.53
		c-2.087,0-3.937,1.113-5.084,2.822c-1.147-1.709-2.996-2.807-5.084-2.807c-3.249,0-5.923,2.592-6.264,6.157H0.207
		c0,0,0,0.044,0,0.071c-0.019,0.219-0.03,0.434-0.03,0.659c0,1.028,0.209,1.999,0.578,2.877
		c2.267,6.984,10.778,11.096,10.778,11.096s10.613-4.734,11.371-13.176c0.026-0.264,0.044-0.531,0.044-0.804
		C22.948,7.993,22.946,7.956,22.945,7.927z M21.918,9.064c-0.691,7.709-10.383,12.033-10.383,12.033s-7.772-3.756-9.842-10.133
		c-0.337-0.802-0.528-1.689-0.528-2.63c0-0.204,0.011-0.4,0.028-0.601c0-0.025,0-0.063,0-0.063H1.2
		c0.312-3.257,2.753-5.624,5.72-5.624c1.907,0,3.596,1.003,4.643,2.563c1.048-1.56,2.736-2.578,4.644-2.578
		c3.076,0,5.591,2.545,5.745,5.965h0.006c0.002,0,0.001,0.167,0,0.246c0.001,0.029,0.003,0.061,0.003,0.087
		C21.96,8.578,21.944,8.823,21.918,9.064z"/>
</g>
<g id="Calque_2">
</g>
</svg>
