<?xml version="1.0" encoding="utf-8"?>
<!-- Generator: Adobe Illustrator 16.0.0, SVG Export Plug-In . SVG Version: 6.00 Build 0)  -->
<!DOCTYPE svg PUBLIC "-//W3C//DTD SVG 1.0//EN" "http://www.w3.org/TR/2001/REC-SVG-20010904/DTD/svg10.dtd">
<svg version="1.0" xmlns="http://www.w3.org/2000/svg" xmlns:xlink="http://www.w3.org/1999/xlink" x="0px" y="0px"
	 width="23.125px" height="23.129px" viewBox="0 0 23.125 23.129" enable-background="new 0 0 23.125 23.129" xml:space="preserve">
<g id="Layer_1">
	<g>
		<path fill="#FFFFFF" d="M22.919,2.963l-2.77-2.765c-0.087-0.086-0.201-0.116-0.315-0.111h-1.337c-0.008,0-0.015-0.009-0.023-0.009
			c-0.008,0-0.014,0.009-0.023,0.009H4.646c-0.004,0-0.006-0.003-0.008-0.003c-0.004,0-0.006,0.003-0.009,0.003H0.485
			c-0.228,0-0.411,0.186-0.411,0.412l0.013,22.139c0,0.227,0.185,0.412,0.412,0.412l22.14-0.014c0.109,0,0.214-0.043,0.292-0.12
			c0.076-0.077,0.119-0.182,0.119-0.291L23.04,3.254C23.04,3.144,22.996,3.04,22.919,2.963z M18.062,0.911l0.006,7.465L5.055,8.387
			L5.049,0.911H18.062z M3.678,22.224L3.672,11.979l15.781-0.01l0.006,10.246L3.678,22.224z M20.283,22.215l-0.007-10.658
			c0-0.226-0.184-0.411-0.411-0.411L3.26,11.155c-0.109,0-0.214,0.043-0.291,0.121c-0.077,0.076-0.12,0.183-0.12,0.291l0.006,10.656
			l-1.943,0.001L0.897,0.911h3.328l0.004,7.888c0,0.109,0.043,0.215,0.122,0.291c0.076,0.078,0.182,0.121,0.29,0.121l13.838-0.009
			c0.228,0,0.411-0.185,0.411-0.414l-0.005-7.877h0.812l2.519,2.515l0.012,18.788L20.283,22.215z"/>
		<path fill="#FFFFFF" d="M6.233,17.512l11.056-0.006c0.227,0,0.411-0.187,0.411-0.412c0-0.227-0.185-0.414-0.411-0.414
			L6.233,16.688c-0.228,0-0.411,0.186-0.411,0.412C5.822,17.325,6.006,17.512,6.233,17.512z"/>
		<path fill="#FFFFFF" d="M6.232,14.827l11.055-0.006c0.227,0,0.411-0.185,0.411-0.413c0-0.227-0.185-0.411-0.411-0.411
			L6.232,14.003c-0.228,0-0.412,0.186-0.412,0.411C5.82,14.643,6.005,14.827,6.232,14.827z"/>
		<path fill="#FFFFFF" d="M17.29,19.513L6.235,19.519c-0.228,0-0.411,0.187-0.411,0.412c0,0.228,0.184,0.412,0.411,0.412
			l11.055-0.006c0.228,0,0.412-0.186,0.412-0.412C17.702,19.699,17.518,19.513,17.29,19.513z"/>
		<path fill="#FFFFFF" d="M12.943,7.18h2.768c0.006,0,0.013,0,0.021,0c0.228,0,0.413-0.184,0.413-0.411
			c0-0.045-0.007-0.089-0.021-0.13l-0.003-4.121c0-0.109-0.045-0.214-0.121-0.291c-0.077-0.077-0.182-0.12-0.291-0.12h-0.002
			l-2.766,0.002c-0.11,0-0.214,0.043-0.291,0.12S12.528,2.41,12.528,2.52l0.003,4.249C12.531,6.996,12.715,7.18,12.943,7.18z
			 M15.297,2.931l0.002,3.425h-1.943l-0.002-3.424L15.297,2.931z"/>
	</g>
</g>
<g id="Calque_2">
</g>
</svg>
