<?xml version="1.0" encoding="utf-8"?>
<!-- Generator: Adobe Illustrator 16.0.0, SVG Export Plug-In . SVG Version: 6.00 Build 0)  -->
<!DOCTYPE svg PUBLIC "-//W3C//DTD SVG 1.0//EN" "http://www.w3.org/TR/2001/REC-SVG-20010904/DTD/svg10.dtd">
<svg version="1.0" xmlns="http://www.w3.org/2000/svg" xmlns:xlink="http://www.w3.org/1999/xlink" x="0px" y="0px"
	 width="23.125px" height="23.129px" viewBox="0 0 23.125 23.129" enable-background="new 0 0 23.125 23.129" xml:space="preserve">
<g id="Layer_1">
	<g>
		<g>
			<path fill="#FFFFFF" d="M19.477,22.307H13.89c-0.276,0-0.5-0.224-0.5-0.5v-6.018H9.733v6.018c0,0.276-0.224,0.5-0.5,0.5H3.646
				c-0.276,0-0.5-0.224-0.5-0.5V9.702c0-0.276,0.224-0.5,0.5-0.5s0.5,0.224,0.5,0.5v11.604h4.587v-6.018c0-0.276,0.224-0.5,0.5-0.5
				h4.656c0.276,0,0.5,0.224,0.5,0.5v6.018h4.587V9.236c0-0.276,0.224-0.5,0.5-0.5s0.5,0.224,0.5,0.5v12.57
				C19.977,22.083,19.753,22.307,19.477,22.307z"/>
		</g>
		<g>
			<path fill="#FFFFFF" d="M22.27,12.53c-0.128,0-0.256-0.049-0.354-0.146L11.562,2.029L1.207,12.384
				c-0.195,0.195-0.512,0.195-0.707,0s-0.195-0.512,0-0.707L11.208,0.969c0.195-0.195,0.512-0.195,0.707,0l10.708,10.708
				c0.195,0.195,0.195,0.512,0,0.707C22.525,12.481,22.397,12.53,22.27,12.53z"/>
		</g>
		<g>
			<path fill="#FFFFFF" d="M18.545,6.012c-0.276,0-0.5-0.224-0.5-0.5V2.753h-2.759c-0.276,0-0.5-0.224-0.5-0.5s0.224-0.5,0.5-0.5
				h3.259c0.276,0,0.5,0.224,0.5,0.5v3.259C19.045,5.788,18.821,6.012,18.545,6.012z"/>
		</g>
	</g>
</g>
<g id="Calque_2">
</g>
</svg>
