<?xml version="1.0" encoding="utf-8"?>
<!-- Generator: Adobe Illustrator 16.0.0, SVG Export Plug-In . SVG Version: 6.00 Build 0)  -->
<!DOCTYPE svg PUBLIC "-//W3C//DTD SVG 1.0//EN" "http://www.w3.org/TR/2001/REC-SVG-20010904/DTD/svg10.dtd">
<svg version="1.0" xmlns="http://www.w3.org/2000/svg" xmlns:xlink="http://www.w3.org/1999/xlink" x="0px" y="0px"
	 width="23.125px" height="23.129px" viewBox="0 0 23.125 23.129" enable-background="new 0 0 23.125 23.129" xml:space="preserve">
<g id="Layer_1">
	<g>
		<path fill="#FFFFFF" d="M20.702,13.229H4.625c-0.244,0-0.443,0.278-0.443,0.618c0,0.337,0.199,0.613,0.443,0.613h16.077
			c0.245,0,0.443-0.276,0.443-0.613C21.146,13.508,20.947,13.229,20.702,13.229z"/>
		<path fill="#FFFFFF" d="M20.702,4.788h-7.077c-0.244,0-0.443,0.278-0.443,0.618c0,0.337,0.199,0.613,0.443,0.613h7.077
			c0.245,0,0.443-0.276,0.443-0.613C21.146,5.066,20.947,4.788,20.702,4.788z"/>
		<path fill="#FFFFFF" d="M20.702,21.698H4.625c-0.244,0-0.443,0.278-0.443,0.618c0,0.337,0.199,0.613,0.443,0.613h16.077
			c0.245,0,0.443-0.276,0.443-0.613C21.146,21.977,20.947,21.698,20.702,21.698z"/>
		<path fill="#FFFFFF" d="M10.896,4.679L3.429,0.366C2.663-0.07,1.894,0.394,1.894,1.252v8.626c0,0.627,0.38,1.062,0.925,1.062
			c0.201,0,0.403-0.058,0.61-0.176l7.468-4.316c0.369-0.212,0.58-0.533,0.58-0.884C11.477,5.214,11.266,4.894,10.896,4.679z
			 M10.453,5.683L2.986,9.997c-0.093,0.054-0.152,0.059-0.168,0.059l-0.002,0.005c-0.01-0.012-0.037-0.063-0.037-0.183V1.252
			c0-0.117,0.027-0.17,0.039-0.177c0.016,0,0.075,0.004,0.168,0.06l7.467,4.309c0.103,0.06,0.134,0.112,0.139,0.117
			C10.587,5.573,10.556,5.625,10.453,5.683z"/>
	</g>
</g>
<g id="Calque_2">
</g>
</svg>
