<?xml version="1.0" encoding="utf-8"?>
<!-- Generator: Adobe Illustrator 16.0.0, SVG Export Plug-In . SVG Version: 6.00 Build 0)  -->
<!DOCTYPE svg PUBLIC "-//W3C//DTD SVG 1.0//EN" "http://www.w3.org/TR/2001/REC-SVG-20010904/DTD/svg10.dtd">
<svg version="1.0" xmlns="http://www.w3.org/2000/svg" xmlns:xlink="http://www.w3.org/1999/xlink" x="0px" y="0px" width="8.688px"
	 height="23.129px" viewBox="0 0 8.688 23.129" enable-background="new 0 0 8.688 23.129" xml:space="preserve">
<g id="Layer_1">
	<g>
		<path fill="#FFFFFF" d="M4.312,9.253C3.037,9.253,2,10.288,2,11.563c0,1.276,1.037,2.313,2.312,2.313
			c1.276,0,2.313-1.037,2.313-2.313C6.625,10.288,5.588,9.253,4.312,9.253z M4.312,12.927c-0.749,0-1.359-0.611-1.359-1.363
			s0.61-1.361,1.359-1.361c0.751,0,1.362,0.609,1.362,1.361S5.063,12.927,4.312,12.927z"/>
		<path fill="#FFFFFF" d="M4.312,0.072C3.037,0.072,2,1.108,2,2.382c0,1.277,1.037,2.315,2.312,2.315
			c1.276,0,2.313-1.038,2.313-2.315C6.625,1.108,5.588,0.072,4.312,0.072z M4.312,3.747c-0.749,0-1.359-0.611-1.359-1.365
			c0-0.749,0.61-1.356,1.359-1.356c0.751,0,1.362,0.607,1.362,1.356C5.674,3.136,5.063,3.747,4.312,3.747z"/>
		<path fill="#FFFFFF" d="M4.312,18.432C3.037,18.432,2,19.469,2,20.746c0,1.273,1.037,2.312,2.312,2.312
			c1.276,0,2.313-1.038,2.313-2.312C6.625,19.469,5.588,18.432,4.312,18.432z M4.312,22.106c-0.749,0-1.359-0.61-1.359-1.36
			c0-0.754,0.61-1.363,1.359-1.363c0.751,0,1.362,0.609,1.362,1.363C5.674,21.496,5.063,22.106,4.312,22.106z"/>
	</g>
</g>
<g id="Calque_2">
</g>
</svg>
