<?xml version="1.0" encoding="utf-8"?>
<!-- Generator: Adobe Illustrator 16.0.0, SVG Export Plug-In . SVG Version: 6.00 Build 0)  -->
<!DOCTYPE svg PUBLIC "-//W3C//DTD SVG 1.0//EN" "http://www.w3.org/TR/2001/REC-SVG-20010904/DTD/svg10.dtd">
<svg version="1.0" xmlns="http://www.w3.org/2000/svg" xmlns:xlink="http://www.w3.org/1999/xlink" x="0px" y="0px"
	 width="23.125px" height="23.129px" viewBox="0 0 23.125 23.129" enable-background="new 0 0 23.125 23.129" xml:space="preserve">
<g id="Layer_1">
	<path fill="#FFFFFF" d="M22.725,6.144c-0.363-1.398-1.533-2.104-2.572-2.333c-1.585-0.35-8.591-0.327-8.591-0.327
		s-7.004-0.022-8.59,0.327C1.934,4.039,0.764,4.745,0.399,6.144c-0.334,1.287-0.334,5.422-0.334,5.422s0,4.135,0.334,5.42
		c0.364,1.4,1.534,2.104,2.572,2.333c1.586,0.351,8.59,0.328,8.59,0.328s7.006,0.022,8.591-0.328
		c1.039-0.229,2.209-0.933,2.572-2.333c0.335-1.285,0.335-5.42,0.335-5.42S23.06,7.431,22.725,6.144z M9.081,15.023V7.989
		l6.251,3.576L9.081,15.023z"/>
</g>
<g id="Calque_3">
</g>
<g id="Calque_2">
</g>
</svg>
