<?xml version="1.0" encoding="utf-8"?>
<!-- Generator: Adobe Illustrator 16.0.0, SVG Export Plug-In . SVG Version: 6.00 Build 0)  -->
<!DOCTYPE svg PUBLIC "-//W3C//DTD SVG 1.0//EN" "http://www.w3.org/TR/2001/REC-SVG-20010904/DTD/svg10.dtd">
<svg version="1.0" xmlns="http://www.w3.org/2000/svg" xmlns:xlink="http://www.w3.org/1999/xlink" x="0px" y="0px"
	 width="23.125px" height="23.129px" viewBox="0 0 23.125 23.129" enable-background="new 0 0 23.125 23.129" xml:space="preserve">
<g id="Layer_1">
	<g>
		<path fill="#FFFFFF" d="M21.189,0.794l-9.596,9.256L2.331,0.447C1.918,0.02,1.242,0.01,0.815,0.419
			C0.388,0.827,0.372,1.511,0.786,1.935l9.259,9.605l-9.601,9.254c-0.424,0.413-0.438,1.088-0.024,1.518
			c0.209,0.218,0.49,0.324,0.771,0.324c0.266,0,0.536-0.096,0.744-0.299l9.598-9.255l9.254,9.596
			c0.215,0.223,0.496,0.332,0.775,0.332c0.268,0,0.539-0.101,0.742-0.305c0.43-0.409,0.443-1.089,0.031-1.517l-9.258-9.6
			l9.601-9.255c0.425-0.41,0.439-1.087,0.03-1.516C22.294,0.394,21.614,0.388,21.189,0.794z"/>
	</g>
</g>
<g id="Calque_2">
</g>
</svg>
