<?xml version="1.0" encoding="utf-8"?>
<!-- Generator: Adobe Illustrator 16.0.0, SVG Export Plug-In . SVG Version: 6.00 Build 0)  -->
<!DOCTYPE svg PUBLIC "-//W3C//DTD SVG 1.0//EN" "http://www.w3.org/TR/2001/REC-SVG-20010904/DTD/svg10.dtd">
<svg version="1.0" xmlns="http://www.w3.org/2000/svg" xmlns:xlink="http://www.w3.org/1999/xlink" x="0px" y="0px"
	 width="23.125px" height="23.129px" viewBox="0 0 23.125 23.129" enable-background="new 0 0 23.125 23.129" xml:space="preserve">
<g id="Layer_1">
	<g>
		<path fill="#FFFFFF" d="M4.675,13.317l14.709,8.492c1.507,0.859,3.022-0.054,3.022-1.744V3.077c0-1.232-0.747-2.089-1.823-2.089
			c-0.395,0-0.792,0.112-1.199,0.345l-14.709,8.5c-0.727,0.418-1.143,1.051-1.143,1.742C3.532,12.263,3.948,12.895,4.675,13.317z
			 M5.547,11.34l14.708-8.495c0.184-0.108,0.299-0.117,0.328-0.117l0.005-0.01c0.021,0.022,0.074,0.127,0.074,0.359v16.988
			c0,0.232-0.054,0.336-0.079,0.349c-0.029,0-0.145-0.008-0.328-0.116L5.547,11.81c-0.199-0.116-0.262-0.22-0.27-0.229
			C5.285,11.556,5.348,11.452,5.547,11.34z"/>
		<path fill="#FFFFFF" d="M2.66,22.901c0.487,0,0.872-0.391,0.872-0.869V1.092c0-0.478-0.385-0.867-0.872-0.867
			c-0.478,0-0.867,0.39-0.867,0.867v20.94C1.793,22.511,2.183,22.901,2.66,22.901z"/>
	</g>
</g>
<g id="Calque_2">
</g>
</svg>
